:SAMPLES-PER-SECOND 30
:FULLY-SPECIFIED
:DEGREES
1263
root  12.0065 40.1081 12.6044 -3.65051 58.7456 -1.83392
RightUpLeg  -11.3014 -1.59401 -3.21193
RightLeg  13.6753 7.63856 1.41424
RightFoot  1.91474 -0.0787707 0.790098
RightToes  0.000481921 0.542163 -0.142578
Spine  17.227 -3.13219 -9.7343
Spine1  4.28764 -9.52664 20.8782
HEad  14.3251 37.3802 -9.21374
LeftShoulder1  4.46266 -11.0427 -24.4492
LeftArm  -36.5386 -4.19068 -16.3335
LeftForeArm  152.326 -73.4665 -138.998
LeftHand  -0.25398 0.0180481 5.50724
RightShoulder  3.8149 8.13125 26.7422
RightArm  7.1675 4.07036 42.3673
RightForeArm  -171.438 63.8694 161.777
RightHand  -0.0950492 1.87659 -1.72222
LeftUpLeg  5.91436 32.7043 17.5684
LeftLeg  15.4786 26.1689 2.19502
LeftFoot  -3.11048 0.712323 -9.62638
LeftToes  1.06245e-005 4.65869e-005 -8.65517e-006
1264
root  11.6374 40.0674 12.6455 -3.85748 61.1228 -1.53815
RightUpLeg  -11.2548 -2.57641 -3.462
RightLeg  14.3616 6.247 1.3038
RightFoot  1.64676 -0.0697167 0.71053
RightToes  0.000481921 0.542163 -0.142578
Spine  18.5457 -3.54437 -12.0354
Spine1  3.80442 -10.6866 22.5438
HEad  14.468 36.9365 -8.0743
LeftShoulder1  4.35545 -12.1575 -21.4497
LeftArm  -35.9117 -17.4122 -4.87324
LeftForeArm  44.1227 -67.8003 -27.0602
LeftHand  -0.25398 0.0180481 5.50724
RightShoulder  3.79305 7.98624 26.9724
RightArm  6.75889 3.26247 42.5706
RightForeArm  -176.73 62.9973 161.946
RightHand  -0.221328 1.72281 -3.76617
LeftUpLeg  4.52785 35.221 17.2163
LeftLeg  16.2148 21.4086 3.08347
LeftFoot  -2.86146 0.697437 -9.16325
LeftToes  1.06245e-005 4.65869e-005 -8.65517e-006
1265
root  11.2316 39.9924 12.6787 -5.06561 64.6965 -2.5069
RightUpLeg  -11.2779 -5.01833 -3.40606
RightLeg  15.177 5.032 1.43117
RightFoot  1.36614 -0.0515372 0.546535
RightToes  0.000481921 0.542163 -0.142578
Spine  20.5731 -3.95428 -15.1905
Spine1  2.72513 -12.4284 26.2621
HEad  14.8037 36.2134 -6.59645
LeftShoulder1  3.89876 -13.888 -15.6792
LeftArm  -32.5169 -30.0729 3.09605
LeftForeArm  29.1802 -26.7655 -3.52533
LeftHand  -0.25398 0.0180481 5.50724
RightShoulder  3.69737 8.0125 26.0302
RightArm  6.47669 2.05595 42.4509
RightForeArm  176.153 62.6047 161.56
RightHand  -0.373256 1.87462 -6.19315
LeftUpLeg  1.74278 37.8075 16.5332
LeftLeg  17.6554 15.3993 4.40778
LeftFoot  -2.85541 0.653268 -8.56221
LeftToes  1.06245e-005 4.65869e-005 -8.65517e-006
1266
root  10.9732 39.9305 12.6948 -6.76978 67.2593 -4.75793
RightUpLeg  -11.7054 -7.57598 -2.84386
RightLeg  15.3692 4.77212 1.80313
RightFoot  1.38316 -0.0425307 0.466234
RightToes  0.000481921 0.542163 -0.142578
Spine  22.5768 -4.42421 -18.5286
Spine1  0.8432 -14.3675 31.3836
HEad  15.1617 37.0695 -6.45537
LeftShoulder1  2.61654 -14.5982 -6.67784
LeftArm  -27.3802 -33.229 2.28174
LeftForeArm  35.3299 -0.547293 -3.4608
LeftHand  -0.25398 0.0180481 5.50724
RightShoulder  3.44368 7.92079 23.9747
RightArm  7.68787 1.96834 42.513
RightForeArm  176.13 63.0125 161.245
RightHand  -0.329783 1.86177 -5.42588
LeftUpLeg  -0.994509 39.3736 16.3001
LeftLeg  18.8619 11.5013 4.53548
LeftFoot  -3.14021 0.607395 -8.20261
LeftToes  1.06245e-005 4.65869e-005 -8.65517e-006
1267
root  10.9913 39.9502 12.6893 -6.87134 66.2921 -5.95087
RightUpLeg  -12.3876 -7.67469 -2.17985
RightLeg  14.371 5.54871 2.212
RightFoot  1.9375 -0.0568245 0.60049
RightToes  0.000481921 0.542163 -0.142578
Spine  23.2578 -4.75007 -20.2271
Spine1  -1.14045 -15.1434 34.638
HEad  15.4733 40.1286 -8.79716
LeftShoulder1  1.43014 -12.0631 -0.916775
LeftArm  -23.9223 -26.3292 -4.64238
LeftForeArm  36.5182 -4.89522 -3.13899
LeftHand  -0.25398 0.0180481 5.50724
RightShoulder  3.27755 7.71809 22.9933
RightArm  10.1396 2.24416 41.7774
RightForeArm  -176.386 63.3111 161.74
RightHand  -0.0931592 1.87997 -1.72093
LeftUpLeg  -1.08527 42.7639 17.4486
LeftLeg  18.5978 9.40919 3.21244
LeftFoot  -3.44641 0.607575 -8.49661
LeftToes  1.06245e-005 4.65869e-005 -8.65517e-006
1268
root  11.2386 40.0497 12.6516 -4.95844 62.1312 -4.94135
RightUpLeg  -12.7388 -5.39455 -1.9009
RightLeg  12.4408 7.3253 2.37004
RightFoot  2.91693 -0.0942806 0.911934
RightToes  0.000481921 0.542163 -0.142578
Spine  22.3016 -4.53002 -19.1961
Spine1  -2.29738 -14.0102 33.832
HEad  15.7362 43.3402 -11.9519
LeftShoulder1  1.17368 -7.66671 -2.52088
LeftArm  -25.3688 -14.8454 -10.0689
LeftForeArm  35.7699 -34.2043 -5.43261
LeftHand  -0.25398 0.0180481 5.50724
RightShoulder  3.36 7.53715 24.2825
RightArm  12.0002 0.472589 39.6141
RightForeArm  -171.874 62.8236 162.527
RightHand  0.0306162 2.32624 0.23471
LeftUpLeg  1.79016 43.9557 19.2344
LeftLeg  16.921 12.457 1.40978
LeftFoot  -3.42497 0.661348 -9.24419
LeftToes  1.06245e-005 4.65869e-005 -8.65517e-006
1269
root  11.5748 40.1701 12.5705 -3.43597 57.5458 -3.83356
RightUpLeg  -12.3687 -3.50489 -1.7949
RightLeg  10.1117 10.0575 2.20611
RightFoot  4.02835 -0.146716 1.29072
RightToes  0.000481921 0.542163 -0.142578
Spine  20.5766 -3.80539 -16.064
Spine1  -2.14853 -11.8386 30.163
HEad  16.0222 44.4428 -13.407
LeftShoulder1  1.42364 -5.5989 -7.9595
LeftArm  -27.6891 -2.87184 -12.4401
LeftForeArm  53.9792 -68.8775 -28.6909
LeftHand  -0.25398 0.0180481 5.50724
RightShoulder  3.49254 7.33475 26.1541
RightArm  12.001 -3.64853 37.5057
RightForeArm  -176.113 62.1721 162.606
RightHand  -0.0619234 1.88095 -1.20583
LeftUpLeg  4.49832 38.3757 19.4072
LeftLeg  15.0541 22.2876 0.499756
LeftFoot  -3.07853 0.727272 -9.7979
LeftToes  1.06245e-005 4.65869e-005 -8.65517e-006
1270
root  11.9298 40.2578 12.4708 -3.06207 54.1211 -3.84247
RightUpLeg  -11.6566 -2.95388 -1.47905
RightLeg  7.78181 12.9331 2.01609
RightFoot  5.0523 -0.206868 1.67592
RightToes  0.000481921 0.542163 -0.142578
Spine  18.6205 -3.16739 -12.7062
Spine1  -0.888213 -10.0879 26.5235
HEad  16.023 44.0481 -13.1661
LeftShoulder1  2.01295 -6.39575 -13.2644
LeftArm  -26.9904 10.4066 -15.5352
LeftForeArm  168.369 -76.1557 -140.999
LeftHand  -0.25398 0.0180481 5.50724
RightShoulder  3.44468 7.01854 26.6828
RightArm  10.9754 -7.28776 37.2563
RightForeArm  178.207 62.0468 162.166
RightHand  -0.172109 1.0091 -3.23082
LeftUpLeg  5.1934 32.4492 18.0807
LeftLeg  14.443 31.2986 1.35744
LeftFoot  -2.83751 0.757098 -9.93708
LeftToes  1.06245e-005 4.65869e-005 -8.65517e-006
1271
root  12.2981 40.2855 12.4015 -3.17969 51.0624 -4.52826
RightUpLeg  -11.219 -2.78146 -0.946825
RightLeg  6.07935 15.7 2.12552
RightFoot  5.78139 -0.261387 1.99965
RightToes  0.000481921 0.542163 -0.142578
Spine  16.9256 -2.9012 -10.3862
Spine1  0.311514 -9.15907 24.1837
HEad  15.707 44.2667 -12.5237
LeftShoulder1  2.59809 -6.7907 -18.734
LeftArm  -26.3948 25.4446 -21.8439
LeftForeArm  -158.702 -53.6401 -169.817
LeftHand  -0.25398 0.0180481 5.50724
RightShoulder  3.28679 6.60319 26.4606
RightArm  10.8645 -8.12182 37.9433
RightForeArm  179.557 62.2549 162.142
RightHand  -0.129223 0.693029 -2.54349
LeftUpLeg  5.55553 30.1084 17.5467
LeftLeg  14.9875 36.347 2.7693
LeftFoot  -3.02775 0.760843 -10.2029
LeftToes  1.06245e-005 4.65869e-005 -8.65517e-006
1272
root  12.6315 40.261 12.3846 -3.22565 47.8099 -5.08008
RightUpLeg  -11.31 -2.50756 -0.340696
RightLeg  5.56729 18.5239 2.44686
RightFoot  6.05745 -0.288796 2.15866
RightToes  0.000481921 0.542163 -0.142578
Spine  16.1635 -2.80558 -9.03446
Spine1  0.19802 -8.46815 22.4642
HEad  16.0979 45.1532 -11.2301
LeftShoulder1  2.74742 -5.34867 -24.8426
LeftArm  -27.0019 37.5883 -30.6301
LeftForeArm  -155.611 -40.4744 -173.398
LeftHand  -0.25398 0.0180481 5.50724
RightShoulder  3.14941 6.082 26.8101
RightArm  12.102 -7.00659 38.313
RightForeArm  -174.629 62.3454 162.619
RightHand  0.000615909 1.22207 -0.139761
LeftUpLeg  6.61902 30.3326 18.1251
LeftLeg  15.5712 38.9497 3.2794
LeftFoot  -3.5316 0.763593 -10.8552
LeftToes  1.06245e-005 4.65869e-005 -8.65517e-006
1273
root  12.8407 40.2129 12.3983 -3.14191 45.3852 -5.28296
RightUpLeg  -11.7759 -2.05137 0.164543
RightLeg  6.0987 20.4199 2.67287
RightFoot  5.91228 -0.280396 2.11449
RightToes  0.000481921 0.542163 -0.142578
Spine  16.2078 -2.69665 -7.98561
Spine1  -1.07492 -7.62715 20.626
HEad  17.6542 44.9722 -8.85817
LeftShoulder1  2.5319 -3.64933 -29.1458
LeftArm  -29.5686 42.8466 -37.9095
LeftForeArm  -156.915 -36.8289 -174.091
LeftHand  -0.25398 0.0180481 5.50724
RightShoulder  3.00129 5.42528 27.5873
RightArm  13.1736 -6.38078 39.0064
RightForeArm  -171.38 62.2211 163.002
RightHand  0.0737234 1.8237 1.00663
LeftUpLeg  7.74828 32.1939 19.1031
LeftLeg  16.0091 39.1655 3.2471
LeftFoot  -4.01743 0.755142 -11.3926
LeftToes  1.06245e-005 4.65869e-005 -8.65517e-006
1274
root  12.8826 40.1708 12.4179 -3.13562 44.7321 -5.29767
RightUpLeg  -12.2309 -1.55184 0.43427
RightLeg  7.03231 20.5918 2.67311
RightFoot  5.54644 -0.248404 1.92852
RightToes  0.000481921 0.542163 -0.142578
Spine  16.2609 -2.64151 -7.07196
Spine1  -2.03993 -6.97388 18.9237
HEad  19.271 43.4268 -6.79918
LeftShoulder1  2.50844 -3.37612 -30.2758
LeftArm  -32.031 42.2666 -38.7657
LeftForeArm  -159.578 -39.012 -173.377
LeftHand  -0.25398 0.0180481 5.50724
RightShoulder  2.88027 4.9239 28.1612
RightArm  12.9834 -6.86424 40.3417
RightForeArm  -172.481 61.9951 163.06
RightHand  0.0204116 1.66454 0.155467
LeftUpLeg  8.15214 34.6836 19.85
LeftLeg  16.5033 37.1743 3.50157
LeftFoot  -4.27631 0.734872 -11.4603
LeftToes  1.06245e-005 4.65869e-005 -8.65517e-006
1275
root  12.7847 40.1442 12.4454 -3.41461 45.5164 -5.2171
RightUpLeg  -12.3705 -1.19866 0.454857
RightLeg  8.02915 19.4919 2.59697
RightFoot  5.11676 -0.212338 1.7101
RightToes  0.000481921 0.542163 -0.142578
Spine  16.1482 -2.7731 -7.30711
Spine1  -1.79113 -7.14231 18.7368
HEad  19.9658 42.3331 -6.21477
LeftShoulder1  2.83674 -4.46562 -29.4639
LeftArm  -34.1062 38.4847 -34.3119
LeftForeArm  -165.322 -43.9147 -171.691
LeftHand  -0.25398 0.0180481 5.50724
RightShoulder  2.96509 5.09398 28.4816
RightArm  12.2276 -6.72786 41.3606
RightForeArm  -175.595 61.9714 162.795
RightHand  -0.0870039 1.33845 -1.64217
LeftUpLeg  8.03578 36.3031 20.1975
LeftLeg  16.928 34.6965 3.98877
LeftFoot  -4.30497 0.722493 -11.3067
LeftToes  1.06245e-005 4.65869e-005 -8.65517e-006
1276
root  12.5958 40.1234 12.4902 -4.00623 46.9363 -5.13324
RightUpLeg  -12.2187 -0.947773 0.366529
RightLeg  9.05042 17.8422 2.56983
RightFoot  4.67886 -0.184956 1.54171
RightToes  0.000481921 0.542163 -0.142578
Spine  16.5089 -3.09562 -9.69842
Spine1  -1.02907 -8.3671 21.0911
HEad  19.8642 42.7481 -6.42578
LeftShoulder1  3.09901 -5.69634 -27.5243
LeftArm  -36.6445 33.8077 -28.6477
LeftForeArm  -172.874 -49.3312 -169.493
LeftHand  -0.25398 0.0180481 5.50724
RightShoulder  3.23394 5.88025 28.466
RightArm  12.2832 -4.72627 41.5873
RightForeArm  -177.998 62.5297 162.171
RightHand  -0.152035 1.39632 -2.76253
LeftUpLeg  7.86725 36.75 20.4412
LeftLeg  17.2252 32.6814 4.36048
LeftFoot  -4.21869 0.725506 -11.2207
LeftToes  1.06245e-005 4.65869e-005 -8.65517e-006
1277
root  12.3451 40.0935 12.5502 -4.72229 48.6846 -5.14874
RightUpLeg  -12.0628 -0.735249 0.289387
RightLeg  10.1073 15.89 2.57283
RightFoot  4.21344 -0.161381 1.39217
RightToes  0.000481921 0.542163 -0.142578
Spine  17.6506 -3.42548 -13.3977
Spine1  -0.857958 -10.0543 24.9196
HEad  19.4773 43.4645 -6.5991
LeftShoulder1  3.06785 -6.48102 -24.4609
LeftArm  -38.0077 27.9961 -22.2201
LeftForeArm  -177.648 -56.7038 -166.387
LeftHand  -0.25398 0.0180481 5.50724
RightShoulder  3.41342 6.51123 28.0735
RightArm  13.3192 -1.84259 41.6177
RightForeArm  -177.784 63.3051 161.613
RightHand  -0.130475 1.63746 -2.33366
LeftUpLeg  7.56153 37.5034 20.8598
LeftLeg  17.5883 30.0126 4.64842
LeftFoot  -4.1425 0.727711 -11.1492
LeftToes  1.06245e-005 4.65869e-005 -8.65517e-006
